<svg width="16" height="16" viewBox="0 0 16 16" fill="none" xmlns="http://www.w3.org/2000/svg">
<path d="M11.7467 7.16673C11.46 7.16673 11.2333 6.9334 11.2333 6.6534C11.2333 6.40673 10.9867 5.8934 10.5733 5.44673C10.1667 5.0134 9.72001 4.76007 9.34668 4.76007C9.06001 4.76007 8.83334 4.52673 8.83334 4.24673C8.83334 3.96673 9.06668 3.7334 9.34668 3.7334C10.0133 3.7334 10.7133 4.0934 11.3267 4.74007C11.9 5.34673 12.2667 6.10007 12.2667 6.64673C12.2667 6.9334 12.0333 7.16673 11.7467 7.16673Z" fill="#098B99"/>
<path d="M14.1533 7.16683C13.8667 7.16683 13.64 6.9335 13.64 6.6535C13.64 4.28683 11.7133 2.36683 9.35333 2.36683C9.06666 2.36683 8.84 2.1335 8.84 1.8535C8.84 1.5735 9.06666 1.3335 9.34666 1.3335C12.28 1.3335 14.6667 3.72016 14.6667 6.6535C14.6667 6.9335 14.4333 7.16683 14.1533 7.16683Z" fill="#098B99"/>
<path d="M7.36668 9.96683L6.13334 11.2002C5.87334 11.4602 5.46001 11.4602 5.19334 11.2068C5.12001 11.1335 5.04668 11.0668 4.97334 10.9935C4.28668 10.3002 3.66668 9.5735 3.11334 8.8135C2.56668 8.0535 2.12668 7.2935 1.80668 6.54016C1.49334 5.78016 1.33334 5.0535 1.33334 4.36016C1.33334 3.90683 1.41334 3.4735 1.57334 3.0735C1.73334 2.66683 1.98668 2.2935 2.34001 1.96016C2.76668 1.54016 3.23334 1.3335 3.72668 1.3335C3.91334 1.3335 4.10001 1.3735 4.26668 1.4535C4.44001 1.5335 4.59334 1.6535 4.71334 1.82683L6.26001 4.00683C6.38001 4.1735 6.46668 4.32683 6.52668 4.4735C6.58668 4.6135 6.62001 4.7535 6.62001 4.88016C6.62001 5.04016 6.57334 5.20016 6.48001 5.3535C6.39334 5.50683 6.26668 5.66683 6.10668 5.82683L5.60001 6.3535C5.52668 6.42683 5.49334 6.5135 5.49334 6.62016C5.49334 6.6735 5.50001 6.72016 5.51334 6.7735C5.53334 6.82683 5.55334 6.86683 5.56668 6.90683C5.68668 7.12683 5.89334 7.4135 6.18668 7.76016C6.48668 8.10683 6.80668 8.46016 7.15334 8.8135C7.22001 8.88016 7.29334 8.94683 7.36001 9.0135C7.62668 9.2735 7.63334 9.70016 7.36668 9.96683Z" fill="#098B99"/>
<path d="M14.6467 12.2199C14.6467 12.4065 14.6133 12.5999 14.5467 12.7865C14.5267 12.8399 14.5067 12.8932 14.48 12.9465C14.3667 13.1865 14.22 13.4132 14.0267 13.6265C13.7 13.9865 13.34 14.2465 12.9333 14.4132C12.9267 14.4132 12.92 14.4199 12.9133 14.4199C12.52 14.5799 12.0933 14.6665 11.6333 14.6665C10.9533 14.6665 10.2267 14.5065 9.45999 14.1799C8.69333 13.8532 7.92666 13.4132 7.16666 12.8599C6.90666 12.6665 6.64666 12.4732 6.39999 12.2665L8.57999 10.0865C8.76666 10.2265 8.93333 10.3332 9.07333 10.4065C9.10666 10.4199 9.14666 10.4399 9.19333 10.4599C9.24666 10.4799 9.29999 10.4865 9.35999 10.4865C9.47333 10.4865 9.55999 10.4465 9.63333 10.3732L10.14 9.8732C10.3067 9.70653 10.4667 9.57986 10.62 9.49986C10.7733 9.40653 10.9267 9.35986 11.0933 9.35986C11.22 9.35986 11.3533 9.38653 11.5 9.44653C11.6467 9.50653 11.8 9.5932 11.9667 9.70653L14.1733 11.2732C14.3467 11.3932 14.4667 11.5332 14.54 11.6999C14.6067 11.8665 14.6467 12.0332 14.6467 12.2199Z" fill="#098B99"/>
</svg>
