<svg width="20" height="20" viewBox="0 0 20 20" fill="none" xmlns="http://www.w3.org/2000/svg">
<path d="M2.58331 4.66668H3.41665C4.24998 4.66668 4.66665 4.25001 4.66665 3.41668V2.58334C4.66665 1.75001 4.24998 1.33334 3.41665 1.33334H2.58331C1.74998 1.33334 1.33331 1.75001 1.33331 2.58334V3.41668C1.33331 4.25001 1.74998 4.66668 2.58331 4.66668Z" fill="#858585"/>
<path d="M2.58331 11.3333H3.41665C4.24998 11.3333 4.66665 10.9167 4.66665 10.0833V9.25C4.66665 8.41667 4.24998 8 3.41665 8H2.58331C1.74998 8 1.33331 8.41667 1.33331 9.25V10.0833C1.33331 10.9167 1.74998 11.3333 2.58331 11.3333Z" fill="#858585"/>
<path d="M2.58331 18H3.41665C4.24998 18 4.66665 17.5834 4.66665 16.75V15.9167C4.66665 15.0834 4.24998 14.6667 3.41665 14.6667H2.58331C1.74998 14.6667 1.33331 15.0834 1.33331 15.9167V16.75C1.33331 17.5834 1.74998 18 2.58331 18Z" fill="#858585"/>
<path d="M9.25 4.66668H10.0833C10.9167 4.66668 11.3333 4.25001 11.3333 3.41668V2.58334C11.3333 1.75001 10.9167 1.33334 10.0833 1.33334H9.25C8.41667 1.33334 8 1.75001 8 2.58334V3.41668C8 4.25001 8.41667 4.66668 9.25 4.66668Z" fill="#858585"/>
<path d="M9.25 11.3333H10.0833C10.9167 11.3333 11.3333 10.9167 11.3333 10.0833V9.25C11.3333 8.41667 10.9167 8 10.0833 8H9.25C8.41667 8 8 8.41667 8 9.25V10.0833C8 10.9167 8.41667 11.3333 9.25 11.3333Z" fill="#858585"/>
<path d="M9.25 18H10.0833C10.9167 18 11.3333 17.5834 11.3333 16.75V15.9167C11.3333 15.0834 10.9167 14.6667 10.0833 14.6667H9.25C8.41667 14.6667 8 15.0834 8 15.9167V16.75C8 17.5834 8.41667 18 9.25 18Z" fill="#858585"/>
<path d="M15.9166 4.66668H16.75C17.5833 4.66668 18 4.25001 18 3.41668V2.58334C18 1.75001 17.5833 1.33334 16.75 1.33334H15.9166C15.0833 1.33334 14.6666 1.75001 14.6666 2.58334V3.41668C14.6666 4.25001 15.0833 4.66668 15.9166 4.66668Z" fill="#858585"/>
<path d="M15.9166 11.3333H16.75C17.5833 11.3333 18 10.9167 18 10.0833V9.25C18 8.41667 17.5833 8 16.75 8H15.9166C15.0833 8 14.6666 8.41667 14.6666 9.25V10.0833C14.6666 10.9167 15.0833 11.3333 15.9166 11.3333Z" fill="#858585"/>
<path d="M15.9166 18H16.75C17.5833 18 18 17.5834 18 16.75V15.9167C18 15.0834 17.5833 14.6667 16.75 14.6667H15.9166C15.0833 14.6667 14.6666 15.0834 14.6666 15.9167V16.75C14.6666 17.5834 15.0833 18 15.9166 18Z" fill="#858585"/>
</svg>
