<svg width="16" height="16" viewBox="0 0 16 16" fill="none" xmlns="http://www.w3.org/2000/svg">
<path d="M6.09999 4.99316C5.72665 4.99316 5.43332 5.29316 5.43332 5.65983C5.43332 6.0265 5.73332 6.3265 6.09999 6.3265C6.46665 6.3265 6.76665 6.0265 6.76665 5.65983C6.76665 5.29316 6.46665 4.99316 6.09999 4.99316Z" fill="#098B99"/>
<path d="M14.3067 3.36016C13.7467 2.06016 12.5133 1.3335 10.7933 1.3335H5.20668C3.06668 1.3335 1.33334 3.06683 1.33334 5.20683V10.7935C1.33334 12.5135 2.06001 13.7468 3.36001 14.3068C3.48668 14.3602 3.63334 14.3268 3.72668 14.2335L14.2333 3.72683C14.3333 3.62683 14.3667 3.48016 14.3067 3.36016ZM7.02001 8.16016C6.76001 8.4135 6.42001 8.5335 6.08001 8.5335C5.74001 8.5335 5.40001 8.40683 5.14001 8.16016C4.46001 7.52016 3.71334 6.50016 4.00001 5.28683C4.25334 4.18683 5.22668 3.6935 6.08001 3.6935C6.93334 3.6935 7.90668 4.18683 8.16001 5.2935C8.44001 6.50016 7.69334 7.52016 7.02001 8.16016Z" fill="#098B99"/>
<path d="M12.98 13.6868C13.1266 13.8335 13.1066 14.0735 12.9266 14.1735C12.34 14.5002 11.6266 14.6668 10.7933 14.6668H5.20665C5.01332 14.6668 4.93332 14.4402 5.06665 14.3068L9.09332 10.2802C9.22665 10.1468 9.43332 10.1468 9.56665 10.2802L12.98 13.6868Z" fill="#098B99"/>
<path d="M14.6667 5.20643V10.7931C14.6667 11.6264 14.5 12.3464 14.1733 12.9264C14.0733 13.1064 13.8333 13.1198 13.6867 12.9798L10.2733 9.56644C10.14 9.4331 10.14 9.22644 10.2733 9.0931L14.3 5.06643C14.44 4.9331 14.6667 5.0131 14.6667 5.20643Z" fill="#098B99"/>
</svg>
