<svg width="13" height="13" viewBox="0 0 13 13" fill="none" xmlns="http://www.w3.org/2000/svg">
<path d="M6.87074 1.75652L7.75148 3.51798C7.87158 3.76319 8.19184 3.99838 8.46207 4.04342L10.0584 4.30864C11.0792 4.47878 11.3194 5.21939 10.5838 5.95L9.3428 7.19103C9.13262 7.40121 9.01753 7.80654 9.08258 8.09678L9.43788 9.63306C9.71811 10.8491 9.07257 11.3195 7.99668 10.6839L6.50044 9.7982C6.23021 9.63806 5.78484 9.63806 5.50961 9.7982L4.01337 10.6839C2.94248 11.3195 2.29194 10.8441 2.57217 9.63306L2.92747 8.09678C2.99252 7.80654 2.87743 7.40121 2.66725 7.19103L1.42622 5.95C0.695616 5.21939 0.930812 4.47878 1.95166 4.30864L3.54799 4.04342C3.81321 3.99838 4.13347 3.76319 4.25357 3.51798L5.1343 1.75652C5.6147 0.800724 6.39535 0.800724 6.87074 1.75652Z" fill="#FEC400" stroke="#FEC400" stroke-width="1.5" stroke-linecap="round" stroke-linejoin="round"/>
</svg>
